<?xml version="1.0" encoding="UTF-8" standalone="no"?>
<!DOCTYPE svg PUBLIC "-//W3C//DTD SVG 1.1//EN"
 "http://www.w3.org/Graphics/SVG/1.1/DTD/svg11.dtd">
<!-- Generated by graphviz version 2.40.1 (20161225.0304)
 -->
<!-- Title: conda_concepts Pages: 1 -->
<svg width="438pt" height="353pt"
 viewBox="0.00 0.00 438.10 353.00" xmlns="http://www.w3.org/2000/svg" xmlns:xlink="http://www.w3.org/1999/xlink">
<g id="graph0" class="graph" transform="scale(1 1) rotate(0) translate(4 349)">
<title>conda_concepts</title>
<polygon fill="#ffffff" stroke="transparent" points="-4,4 -4,-349 434.0972,-349 434.0972,4 -4,4"/>
<!-- repository -->
<g id="node1" class="node">
<title>repository</title>
<polygon fill="none" stroke="#000000" points="152.5537,-345 80.0217,-345 80.0217,-309 152.5537,-309 152.5537,-345"/>
<text text-anchor="middle" x="116.2877" y="-322.8" font-family="Times,serif" font-size="14.00" fill="#000000">repository</text>
</g>
<!-- remote -->
<g id="node2" class="node">
<title>remote</title>
<polygon fill="none" stroke="#000000" points="69.657,-259 14.9184,-259 14.9184,-223 69.657,-223 69.657,-259"/>
<text text-anchor="middle" x="42.2877" y="-236.8" font-family="Times,serif" font-size="14.00" fill="#000000">remote</text>
</g>
<!-- repository&#45;&gt;remote -->
<g id="edge1" class="edge">
<title>repository&#45;&gt;remote</title>
<path fill="none" stroke="#000000" d="M79.7632,-320.1971C50.3588,-313.8901 12.4629,-303.5943 3.2564,-291 -2.8138,-282.696 .7418,-273.7953 7.7071,-265.8388"/>
<polygon fill="#000000" stroke="#000000" points="10.1672,-268.3285 14.884,-258.8415 5.2805,-263.3164 10.1672,-268.3285"/>
<text text-anchor="middle" x="30.3033" y="-279.8" font-family="Times,serif" font-size="14.00" fill="#000000">may have</text>
</g>
<!-- files -->
<g id="node3" class="node">
<title>files</title>
<polygon fill="none" stroke="#000000" points="162.2877,-259 108.2877,-259 108.2877,-223 162.2877,-223 162.2877,-259"/>
<text text-anchor="middle" x="135.2877" y="-236.8" font-family="Times,serif" font-size="14.00" fill="#000000">files</text>
</g>
<!-- repository&#45;&gt;files -->
<g id="edge3" class="edge">
<title>repository&#45;&gt;files</title>
<path fill="none" stroke="#000000" d="M125.2223,-308.6912C127.5758,-303.1308 129.8551,-296.923 131.2877,-291 132.9657,-284.062 133.9793,-276.4408 134.5818,-269.2853"/>
<polygon fill="#000000" stroke="#000000" points="138.0773,-269.4653 135.2001,-259.2687 131.0906,-269.034 138.0773,-269.4653"/>
<text text-anchor="middle" x="157.6153" y="-279.8" font-family="Times,serif" font-size="14.00" fill="#000000">contains</text>
</g>
<!-- branch -->
<g id="node4" class="node">
<title>branch</title>
<polygon fill="none" stroke="#000000" points="302.3776,-259 248.1977,-259 248.1977,-223 302.3776,-223 302.3776,-259"/>
<text text-anchor="middle" x="275.2877" y="-236.8" font-family="Times,serif" font-size="14.00" fill="#000000">branch</text>
</g>
<!-- repository&#45;&gt;branch -->
<g id="edge4" class="edge">
<title>repository&#45;&gt;branch</title>
<path fill="none" stroke="#000000" d="M151.4837,-308.8631C162.3536,-303.201 174.3431,-296.8939 185.2877,-291 203.2136,-281.3464 223.0053,-270.3846 239.4535,-261.19"/>
<polygon fill="#000000" stroke="#000000" points="241.1999,-264.2235 248.2144,-256.2832 237.7793,-258.1161 241.1999,-264.2235"/>
<text text-anchor="middle" x="235.9205" y="-279.8" font-family="Times,serif" font-size="14.00" fill="#000000">has many</text>
</g>
<!-- remote&#45;&gt;repository -->
<g id="edge2" class="edge">
<title>remote&#45;&gt;repository</title>
<path fill="none" stroke="#000000" d="M53.1067,-259.372C59.2598,-269.1848 67.4257,-281.2214 75.9566,-291 79.1805,-294.6954 82.7684,-298.3819 86.4375,-301.9094"/>
<polygon fill="#000000" stroke="#000000" points="84.2688,-304.6705 93.9923,-308.8782 89.015,-299.5253 84.2688,-304.6705"/>
<text text-anchor="middle" x="101.9532" y="-279.8" font-family="Times,serif" font-size="14.00" fill="#000000">identifies</text>
</g>
<!-- files&#45;&gt;branch -->
<g id="edge7" class="edge">
<title>files&#45;&gt;branch</title>
<path fill="none" stroke="#000000" d="M162.6134,-241C184.1019,-241 214.2662,-241 237.9773,-241"/>
<polygon fill="#000000" stroke="#000000" points="238.0309,-244.5001 248.0308,-241 238.0308,-237.5001 238.0309,-244.5001"/>
<text text-anchor="middle" x="205.2652" y="-246.8" font-family="Times,serif" font-size="14.00" fill="#000000">can differ in</text>
</g>
<!-- history -->
<g id="node5" class="node">
<title>history</title>
<polygon fill="none" stroke="#000000" points="162.6774,-173 107.8979,-173 107.8979,-137 162.6774,-137 162.6774,-173"/>
<text text-anchor="middle" x="135.2877" y="-150.8" font-family="Times,serif" font-size="14.00" fill="#000000">history</text>
</g>
<!-- files&#45;&gt;history -->
<g id="edge8" class="edge">
<title>files&#45;&gt;history</title>
<path fill="none" stroke="#000000" d="M135.2877,-222.7616C135.2877,-211.3597 135.2877,-196.4342 135.2877,-183.494"/>
<polygon fill="#000000" stroke="#000000" points="138.7878,-183.2121 135.2877,-173.2121 131.7878,-183.2121 138.7878,-183.2121"/>
<text text-anchor="middle" x="148.5015" y="-193.8" font-family="Times,serif" font-size="14.00" fill="#000000">have</text>
</g>
<!-- branch&#45;&gt;branch -->
<g id="edge5" class="edge">
<title>branch&#45;&gt;branch</title>
<path fill="none" stroke="#000000" d="M302.5556,-248.8673C312.3485,-249.0365 320.3326,-246.4141 320.3326,-241 320.3326,-237.7008 317.3678,-235.4382 312.8356,-234.2123"/>
<polygon fill="#000000" stroke="#000000" points="312.8665,-230.6964 302.5556,-233.1327 312.1353,-237.6581 312.8665,-230.6964"/>
<text text-anchor="middle" x="375.2149" y="-236.8" font-family="Times,serif" font-size="14.00" fill="#000000">can be merged with</text>
</g>
<!-- commit -->
<g id="node6" class="node">
<title>commit</title>
<polygon fill="none" stroke="#000000" points="304.5606,-173 246.0148,-173 246.0148,-137 304.5606,-137 304.5606,-173"/>
<text text-anchor="middle" x="275.2877" y="-150.8" font-family="Times,serif" font-size="14.00" fill="#000000">commit</text>
</g>
<!-- branch&#45;&gt;commit -->
<g id="edge6" class="edge">
<title>branch&#45;&gt;commit</title>
<path fill="none" stroke="#000000" d="M275.2877,-222.7616C275.2877,-211.3597 275.2877,-196.4342 275.2877,-183.494"/>
<polygon fill="#000000" stroke="#000000" points="278.7878,-183.2121 275.2877,-173.2121 271.7878,-183.2121 278.7878,-183.2121"/>
<text text-anchor="middle" x="305.0377" y="-193.8" font-family="Times,serif" font-size="14.00" fill="#000000">consists of</text>
</g>
<!-- i01 -->
<g id="node10" class="node">
<title>i01</title>
<ellipse fill="#000000" stroke="#000000" cx="242.2877" cy="-80" rx="0" ry="0"/>
</g>
<!-- commit&#45;&gt;i01 -->
<g id="edge10" class="edge">
<title>commit&#45;&gt;i01</title>
<path fill="none" stroke="#000000" d="M267.2993,-136.8446C257.838,-115.3418 243.2351,-82.1533 242.3317,-80.1001"/>
<text text-anchor="middle" x="278.8878" y="-107.8" font-family="Times,serif" font-size="14.00" fill="#000000">records</text>
</g>
<!-- differences -->
<g id="node7" class="node">
<title>differences</title>
<polygon fill="none" stroke="#000000" points="174.2213,-36 96.354,-36 96.354,0 174.2213,0 174.2213,-36"/>
<text text-anchor="middle" x="135.2877" y="-13.8" font-family="Times,serif" font-size="14.00" fill="#000000">differences</text>
</g>
<!-- differences&#45;&gt;history -->
<g id="edge9" class="edge">
<title>differences&#45;&gt;history</title>
<path fill="none" stroke="#000000" d="M135.2877,-36.2678C135.2877,-59.4372 135.2877,-99.6329 135.2877,-126.764"/>
<polygon fill="#000000" stroke="#000000" points="131.7878,-126.8074 135.2877,-136.8075 138.7878,-126.8075 131.7878,-126.8074"/>
<text text-anchor="middle" x="159.1964" y="-75.8" font-family="Times,serif" font-size="14.00" fill="#000000">make up</text>
</g>
<!-- log message -->
<g id="node8" class="node">
<title>log message</title>
<polygon fill="none" stroke="#000000" points="276.6052,-36 191.9701,-36 191.9701,0 276.6052,0 276.6052,-36"/>
<text text-anchor="middle" x="234.2877" y="-13.8" font-family="Times,serif" font-size="14.00" fill="#000000">log message</text>
</g>
<!-- author -->
<g id="node9" class="node">
<title>author</title>
<polygon fill="none" stroke="#000000" points="348.2877,-36 294.2877,-36 294.2877,0 348.2877,0 348.2877,-36"/>
<text text-anchor="middle" x="321.2877" y="-13.8" font-family="Times,serif" font-size="14.00" fill="#000000">author</text>
</g>
<!-- author&#45;&gt;commit -->
<g id="edge14" class="edge">
<title>author&#45;&gt;commit</title>
<path fill="none" stroke="#000000" d="M320.6587,-36.2806C319.3563,-57.1241 315.3811,-91.825 303.2877,-119 301.8601,-122.2078 300.087,-125.3844 298.1309,-128.4445"/>
<polygon fill="#000000" stroke="#000000" points="295.2112,-126.5108 292.2684,-136.6888 300.916,-130.5675 295.2112,-126.5108"/>
<text text-anchor="middle" x="334.7154" y="-75.8" font-family="Times,serif" font-size="14.00" fill="#000000">creates</text>
</g>
<!-- i01&#45;&gt;differences -->
<g id="edge12" class="edge">
<title>i01&#45;&gt;differences</title>
<path fill="none" stroke="#000000" d="M242.2101,-79.9551C240.3405,-78.8717 205.0277,-58.4101 175.4894,-41.2945"/>
<polygon fill="#000000" stroke="#000000" points="176.9583,-38.1005 166.5511,-36.1153 173.4488,-44.1572 176.9583,-38.1005"/>
</g>
<!-- i01&#45;&gt;log message -->
<g id="edge13" class="edge">
<title>i01&#45;&gt;log message</title>
<path fill="none" stroke="#000000" d="M242.2819,-79.9551C242.1553,-78.9745 239.9801,-62.1165 237.9308,-46.2345"/>
<polygon fill="#000000" stroke="#000000" points="241.3761,-45.5851 236.6251,-36.1153 234.4337,-46.481 241.3761,-45.5851"/>
</g>
<!-- i01&#45;&gt;author -->
<g id="edge11" class="edge">
<title>i01&#45;&gt;author</title>
<path fill="none" stroke="#000000" d="M242.3449,-79.9551C243.6955,-78.8951 268.685,-59.2831 290.1903,-42.4055"/>
<polygon fill="#000000" stroke="#000000" points="292.4995,-45.0425 298.2053,-36.1153 288.1778,-39.5358 292.4995,-45.0425"/>
</g>
</g>
</svg>
